# This file uses centimeters as units for non-parametric coordinates.
# UVs by headus UVLayout v2.09.00 2015/09/22 07:54:21

g default
v -2.356501 -0.121445 13.077246
v 2.356501 -0.121445 13.077246
v -2.356501 0.121445 13.077246
v 2.356501 0.121445 13.077246
v -2.357057 -0.110117 11.442590
v 2.333250 0.351838 11.442590
v -2.334914 -0.340619 9.807935
v 2.287528 0.578842 9.807935
v -2.290284 -0.567840 8.173279
v 2.219777 0.800272 8.173279
v -2.223598 -0.789593 6.538623
v 2.130648 1.013994 6.538623
v -2.135497 -1.003742 4.903967
v 2.020999 1.217952 4.903967
v -2.026830 -1.208224 3.269312
v 1.891888 1.410179 3.269312
v -1.898644 -1.401070 1.634656
v 1.744556 1.588826 1.634656
v -1.752172 -1.580423 -0.000000
v 1.580423 1.752172 0.000000
v -1.588826 -1.744556 -1.634656
v 1.401070 1.898643 -1.634656
v -1.410179 -1.891888 -3.269312
v 1.208224 2.026830 -3.269312
v -1.217952 -2.020999 -4.903967
v 1.003742 2.135497 -4.903967
v -1.013994 -2.130648 -6.538623
v 0.789593 2.223598 -6.538623
v -0.800272 -2.219777 -8.173279
v 0.567840 2.290284 -8.173279
v -0.578842 -2.287528 -9.807935
v 0.340619 2.334914 -9.807935
v -0.351838 -2.333250 -11.442590
v 0.110117 2.357057 -11.442590
v -0.121445 -2.356501 -13.077246
v -0.121445 2.356501 -13.077246
v 0.121445 -2.356501 -13.077246
v 0.121445 2.356501 -13.077246
v -0.110117 -2.357057 -11.442590
v 0.351838 2.333250 -11.442590
v -0.340619 -2.334914 -9.807935
v 0.578842 2.287528 -9.807935
v -0.567840 -2.290284 -8.173279
v 0.800272 2.219777 -8.173279
v -0.789593 -2.223598 -6.538623
v 1.013994 2.130648 -6.538623
v -1.003742 -2.135497 -4.903967
v 1.217952 2.020999 -4.903967
v -1.208224 -2.026830 -3.269312
v 1.410179 1.891888 -3.269312
v -1.401070 -1.898643 -1.634656
v 1.588826 1.744556 -1.634656
v -1.580423 -1.752172 -0.000000
v 1.752172 1.580423 0.000000
v -1.744556 -1.588826 1.634656
v 1.898644 1.401070 1.634656
v -1.891888 -1.410179 3.269312
v 2.026830 1.208224 3.269312
v -2.020999 -1.217952 4.903967
v 2.135497 1.003742 4.903967
v -2.130648 -1.013994 6.538623
v 2.223598 0.789593 6.538623
v -2.219777 -0.800272 8.173279
v 2.290284 0.567840 8.173279
v -2.287528 -0.578842 9.807935
v 2.334914 0.340619 9.807935
v -2.333250 -0.351838 11.442590
v 2.357057 0.110117 11.442590
# 106 texture coords
# 102 texture coords
vt 0.015902 0.984904
vt 0.187635 0.924610
vt 0.014754 0.925851
vt 0.187643 0.864147
vt 0.014773 0.865371
vt 0.187625 0.803322
vt 0.014797 0.804557
vt 0.187620 0.742344
vt 0.014795 0.743591
vt 0.187612 0.681258
vt 0.014788 0.682514
vt 0.187600 0.620090
vt 0.014776 0.621352
vt 0.187586 0.558868
vt 0.014762 0.560135
vt 0.187571 0.497621
vt 0.014748 0.498888
vt 0.187557 0.436375
vt 0.014734 0.437641
vt 0.187544 0.375157
vt 0.014721 0.376419
vt 0.187532 0.313996
vt 0.014709 0.315252
vt 0.187523 0.252918
vt 0.014699 0.254166
vt 0.187520 0.191953
vt 0.014692 0.193188
vt 0.187545 0.131140
vt 0.014676 0.132364
vt 0.187567 0.070660
vt 0.014686 0.071901
vt 0.186419 0.011608
vt 0.383782 0.263996
vt 0.383785 0.324418
vt 0.210997 0.325676
vt 0.210994 0.265256
vt 0.383779 0.203639
vt 0.210991 0.204900
vt 0.383787 0.384889
vt 0.210998 0.386146
vt 0.383776 0.143364
vt 0.210988 0.144626
vt 0.383789 0.445392
vt 0.211000 0.446648
vt 0.383774 0.083186
vt 0.210985 0.084449
vt 0.383790 0.505911
vt 0.211002 0.507167
vt 0.210983 0.024384
vt 0.383772 0.023121
vt 0.383792 0.566430
vt 0.211004 0.567685
vt 0.383794 0.626934
vt 0.211006 0.628188
vt 0.383794 0.687404
vt 0.211006 0.688658
vt 0.383795 0.747826
vt 0.211007 0.749080
vt 0.383796 0.808182
vt 0.211007 0.809437
vt 0.383796 0.868457
vt 0.211008 0.869713
vt 0.383796 0.928635
vt 0.211008 0.929891
vt 0.383796 0.988700
vt 0.211007 0.989956
vt 0.005873 0.316501
vt 0.005863 0.255413
vt 0.196358 0.251670
vt 0.196368 0.312748
vt 0.005885 0.377668
vt 0.196380 0.373909
vt 0.005854 0.194434
vt 0.196358 0.190704
vt 0.005898 0.438890
vt 0.196392 0.435126
vt 0.005814 0.133560
vt 0.196401 0.129847
vt 0.005911 0.500137
vt 0.196406 0.496372
vt 0.005780 0.072459
vt 0.196370 0.068816
vt 0.005926 0.561384
vt 0.196421 0.557619
vt 0.012579 0.008544
vt 0.015794 0.013271
vt 0.189448 0.005780
vt 0.005941 0.622601
vt 0.196436 0.618841
vt 0.005952 0.683762
vt 0.196447 0.680009
vt 0.005960 0.744839
vt 0.196455 0.741096
vt 0.005960 0.805806
vt 0.196463 0.802076
vt 0.005917 0.866664
vt 0.196503 0.862950
vt 0.005951 0.927695
vt 0.196540 0.924052
vt 0.189742 0.987967
vt 0.012874 0.990732
vt 0.186528 0.983240
vn 0.000000 0.000000 1.000000
vn 0.000000 0.000000 1.000000
vn 0.000000 0.000000 1.000000
vn 0.000000 0.000000 1.000000
vn -0.049068 0.998795 -0.000000
vn -0.049068 0.998795 -0.000000
vn -0.131514 0.991314 -0.000000
vn -0.131680 0.991292 -0.000000
vn -0.234721 0.972063 0.000000
vn -0.234889 0.972022 0.000000
vn -0.331106 0.943594 0.000000
vn -0.331281 0.943532 0.000000
vn -0.422982 0.906138 0.000000
vn -0.423167 0.906052 0.000000
vn -0.510225 0.860041 0.000000
vn -0.510425 0.859922 0.000000
vn -0.592262 0.805745 -0.000000
vn -0.592481 0.805585 -0.000000
vn -0.668420 0.743784 -0.000000
vn -0.668662 0.743567 -0.000000
vn -0.738027 0.674771 -0.000000
vn -0.738297 0.674476 -0.000000
vn -0.800445 0.599407 0.000000
vn -0.800751 0.598998 0.000000
vn -0.855094 0.518472 0.000000
vn -0.855446 0.517893 0.000000
vn -0.901465 0.432852 0.000000
vn -0.901875 0.431997 0.000000
vn -0.939123 0.343582 0.000000
vn -0.939613 0.342238 0.000000
vn -0.967718 0.252037 -0.000000
vn -0.968328 0.249683 -0.000000
vn -0.986981 0.160837 0.000000
vn -0.987803 0.155710 0.000000
vn -0.996774 0.080264 0.000000
vn -0.998024 0.062830 0.000000
vn -0.998796 0.049068 0.000000
vn -0.998796 0.049068 0.000000
vn 0.000000 0.000000 -1.000000
vn 0.000000 0.000000 -1.000000
vn 0.000000 0.000000 -1.000000
vn 0.000000 0.000000 -1.000000
vn 0.998796 -0.049068 0.000000
vn 0.998796 -0.049068 0.000000
vn 0.998024 -0.062830 0.000000
vn 0.996774 -0.080264 0.000000
vn 0.987803 -0.155710 0.000000
vn 0.986981 -0.160837 0.000000
vn 0.968328 -0.249683 -0.000000
vn 0.967718 -0.252037 -0.000000
vn 0.939613 -0.342238 0.000000
vn 0.939123 -0.343582 0.000000
vn 0.901875 -0.431997 0.000000
vn 0.901465 -0.432852 0.000000
vn 0.855446 -0.517893 0.000000
vn 0.855094 -0.518472 0.000000
vn 0.800751 -0.598998 0.000000
vn 0.800444 -0.599407 0.000000
vn 0.738297 -0.674476 -0.000000
vn 0.738027 -0.674771 -0.000000
vn 0.668662 -0.743567 -0.000000
vn 0.668420 -0.743784 -0.000000
vn 0.592481 -0.805585 -0.000000
vn 0.592262 -0.805745 -0.000000
vn 0.510425 -0.859922 0.000000
vn 0.510225 -0.860041 0.000000
vn 0.423168 -0.906051 0.000000
vn 0.422982 -0.906138 0.000000
vn 0.331281 -0.943532 0.000000
vn 0.331106 -0.943594 0.000000
vn 0.234889 -0.972022 0.000000
vn 0.234721 -0.972063 0.000000
vn 0.131680 -0.991292 -0.000000
vn 0.131514 -0.991314 -0.000000
vn 0.049068 -0.998795 0.000000
vn 0.049068 -0.998795 0.000000
vn 0.131144 0.991363 0.000000
vn 0.049068 0.998795 -0.000000
vn 0.049068 0.998795 -0.000000
vn 0.071449 0.997444 -0.000000
vn 0.233773 0.972291 -0.000000
vn 0.157463 0.987525 0.000000
vn 0.330581 0.943778 0.000000
vn 0.249896 0.968273 -0.000000
vn 0.422866 0.906192 0.000000
vn 0.341951 0.939718 0.000000
vn 0.510454 0.859905 -0.000000
vn 0.431491 0.902117 -0.000000
vn 0.592783 0.805362 -0.000000
vn 0.517267 0.855824 -0.000000
vn 0.669193 0.743088 0.000000
vn 0.598292 0.801278 -0.000000
vn 0.739022 0.673681 -0.000000
vn 0.673703 0.739002 0.000000
vn 0.801639 0.597808 -0.000000
vn 0.742728 0.669593 -0.000000
vn 0.856468 0.516200 -0.000000
vn 0.804672 0.593719 -0.000000
vn 0.903000 0.429642 -0.000000
vn 0.858919 0.512111 -0.000000
vn 0.940799 0.338966 -0.000000
vn 0.904934 0.425552 -0.000000
vn 0.969511 0.245047 -0.000000
vn 0.942262 0.334876 -0.000000
vn 0.988869 0.148789 0.000000
vn 0.970536 0.240957 -0.000000
vn 0.998693 0.051117 0.000000
vn 0.989476 0.144699 0.000000
vn 0.998796 0.049067 0.000000
vn 0.998796 0.049067 0.000000
vn -0.049068 -0.998795 -0.000000
vn -0.071449 -0.997444 -0.000000
vn -0.131144 -0.991363 -0.000000
vn -0.049068 -0.998795 -0.000000
vn -0.157463 -0.987525 -0.000000
vn -0.233773 -0.972291 -0.000000
vn -0.249896 -0.968273 -0.000000
vn -0.330581 -0.943778 -0.000000
vn -0.341951 -0.939718 0.000000
vn -0.422866 -0.906192 0.000000
vn -0.431491 -0.902117 0.000000
vn -0.510454 -0.859905 0.000000
vn -0.517267 -0.855824 0.000000
vn -0.592783 -0.805362 -0.000000
vn -0.598292 -0.801278 -0.000000
vn -0.669193 -0.743088 0.000000
vn -0.673703 -0.739002 0.000000
vn -0.739022 -0.673681 0.000000
vn -0.742728 -0.669593 0.000000
vn -0.801639 -0.597808 0.000000
vn -0.804672 -0.593719 0.000000
vn -0.856468 -0.516200 0.000000
vn -0.858919 -0.512111 0.000000
vn -0.903000 -0.429641 0.000000
vn -0.904934 -0.425552 0.000000
vn -0.940799 -0.338966 0.000000
vn -0.942262 -0.334876 -0.000000
vn -0.969511 -0.245047 -0.000000
vn -0.970536 -0.240957 -0.000000
vn -0.988869 -0.148789 0.000000
vn -0.989476 -0.144699 0.000000
vn -0.998693 -0.051117 0.000000
vn -0.998796 -0.049067 0.000000
vn -0.998796 -0.049067 0.000000
s off
g pCube2
f 1/100/1 2/101/2 4/1/3 3/102/4
s 1
f 3/102/5 4/1/6 6/3/7 5/2/8
f 5/2/8 6/3/7 8/5/9 7/4/10
f 7/4/10 8/5/9 10/7/11 9/6/12
f 9/6/12 10/7/11 12/9/13 11/8/14
f 11/8/14 12/9/13 14/11/15 13/10/16
f 13/10/16 14/11/15 16/13/17 15/12/18
f 15/12/18 16/13/17 18/15/19 17/14/20
f 17/14/20 18/15/19 20/17/21 19/16/22
f 19/16/22 20/17/21 22/19/23 21/18/24
f 21/18/24 22/19/23 24/21/25 23/20/26
f 23/20/26 24/21/25 26/23/27 25/22/28
f 25/22/28 26/23/27 28/25/29 27/24/30
f 27/24/30 28/25/29 30/27/31 29/26/32
f 29/26/32 30/27/31 32/29/33 31/28/34
f 31/28/34 32/29/33 34/31/35 33/30/36
f 33/30/36 34/31/35 36/86/37 35/32/38
s off
f 35/32/39 36/86/40 38/85/41 37/87/42
s 2
f 37/49/43 38/50/44 40/45/45 39/46/46
f 39/46/46 40/45/45 42/41/47 41/42/48
f 41/42/48 42/41/47 44/37/49 43/38/50
f 43/38/50 44/37/49 46/33/51 45/36/52
f 45/36/52 46/33/51 48/34/53 47/35/54
f 47/35/54 48/34/53 50/39/55 49/40/56
f 49/40/56 50/39/55 52/43/57 51/44/58
f 51/44/58 52/43/57 54/47/59 53/48/60
f 53/48/60 54/47/59 56/51/61 55/52/62
f 55/52/62 56/51/61 58/53/63 57/54/64
f 57/54/64 58/53/63 60/55/65 59/56/66
f 59/56/66 60/55/65 62/57/67 61/58/68
f 61/58/68 62/57/67 64/59/69 63/60/70
f 63/60/70 64/59/69 66/61/71 65/62/72
f 65/62/72 66/61/71 68/63/73 67/64/74
f 67/64/74 68/63/73 2/65/75 1/66/76
s 3
f 40/81/77 38/85/78 36/86/79 34/31/80
f 42/77/81 40/81/77 34/31/80 32/29/82
f 44/73/83 42/77/81 32/29/82 30/27/84
f 46/68/85 44/73/83 30/27/84 28/25/86
f 48/67/87 46/68/85 28/25/86 26/23/88
f 50/71/89 48/67/87 26/23/88 24/21/90
f 52/75/91 50/71/89 24/21/90 22/19/92
f 54/79/93 52/75/91 22/19/92 20/17/94
f 56/83/95 54/79/93 20/17/94 18/15/96
f 58/88/97 56/83/95 18/15/96 16/13/98
f 60/90/99 58/88/97 16/13/98 14/11/100
f 62/92/101 60/90/99 14/11/100 12/9/102
f 64/94/103 62/92/101 12/9/102 10/7/104
f 66/96/105 64/94/103 10/7/104 8/5/106
f 68/98/107 66/96/105 8/5/106 6/3/108
f 2/101/109 68/98/107 6/3/108 4/1/110
s 4
f 37/87/111 39/82/112 33/30/113 35/32/114
f 39/82/112 41/78/115 31/28/116 33/30/113
f 41/78/115 43/74/117 29/26/118 31/28/116
f 43/74/117 45/69/119 27/24/120 29/26/118
f 45/69/119 47/70/121 25/22/122 27/24/120
f 47/70/121 49/72/123 23/20/124 25/22/122
f 49/72/123 51/76/125 21/18/126 23/20/124
f 51/76/125 53/80/127 19/16/128 21/18/126
f 53/80/127 55/84/129 17/14/130 19/16/128
f 55/84/129 57/89/131 15/12/132 17/14/130
f 57/89/131 59/91/133 13/10/134 15/12/132
f 59/91/133 61/93/135 11/8/136 13/10/134
f 61/93/135 63/95/137 9/6/138 11/8/136
f 63/95/137 65/97/139 7/4/140 9/6/138
f 65/97/139 67/99/141 5/2/142 7/4/140
f 67/99/141 1/100/143 3/102/144 5/2/142
